# xmcd
#
# Track frame offsets:
#	182
#	12347
#	25155
#	34837
#	47410
#	58840
#	68240
#	83505
#	100805
#	111117
#	123037
#	139335
#
# Disc length: 2046 seconds
#
# Revision: 0
# Processed by: cddbd v1.5.1PL2 Copyright (c) Steve Scherf et al.
# Submitted via: dBpowerAMP V4.0
#
DISCID=9607fc0c
DTITLE=Sally Rose Band, The  - I Love Country No. 2
DYEAR=1900
DGENRE=Country
TTITLE0=Hallelujah In My Heart
TTITLE1=Wheel Of Love
TTITLE2=Concert Of Birds
TTITLE3=I Can't Resist
TTITLE4=Little Tears
TTITLE5=When The Sun Of My Life Goes Down
TTITLE6=Yellow Moon
TTITLE7=Sorry I'm Falling
TTITLE8=Ghost Dance
TTITLE9=Poor Boy
TTITLE10=The Rose
TTITLE11=Sein Truck
EXTD=
EXTT0=
EXTT1=
EXTT2=
EXTT3=
EXTT4=
EXTT5=
EXTT6=
EXTT7=
EXTT8=
EXTT9=
EXTT10=
EXTT11=
PLAYORDER=
